# xmcd
#
# Track frame offsets:
#	150
#	47778
#	85336
#	126397
#	136252
#	185355
#	226430
#	290818
#	322899
#
# Disc length: 4378 seconds
#
# Revision: 0
# Processed by: cddbd v1.5.2PL0 Copyright (c) Steve Scherf et al.
# Submitted via: EasyCDDAExtractor 16.0.6.1
#
DISCID=82111809
DTITLE=Συλλογικός δίσκος - Αντρικά μουνάτα 2.2
DYEAR=2003
DGENRE=Δρώμενα Αποκριάς
TTITLE0=Χορωδία - Καλόγερος [Θράκη, ηχογρ. 1979]
TTITLE1=Χορωδία - Καρναβάλια [Σοχός, ηχογρ. 1968]
TTITLE2=Καραγιώργος Χρήστος-Καλεμκερίσου Σ.-Μελίκης Γ. - Μπουρανί [Τύρναβος, η
TTITLE2=χογρ. Καθ. Δευτ. 26 Φεβ. 2001]
TTITLE3=Πλακίδης Γιάννης-χορός - Παρωδία γάμου [παπάς Γιάννης Πλακίδης-χορός]
TTITLE4=Χορωδία - Μπούλα και Γενίτσαροι [Νάουσα]
TTITLE5=Παπαναούμ Δημήτρης-Λιούκα Δέσποινα-χορωδία - Χάσκας [Σιάτιστα, ηχογρ. 
TTITLE5=1964]
TTITLE6=Χορωδία - Φανοί [Κοζάνη]
TTITLE7=Άνευ ερμηνευτού - Γαϊτανάκι [19ος Λαϊκός Χειμώνας, αίθουσα τελετών Α.Π
TTITLE7=Θ.]
TTITLE8=Μελίκης Γιώργης - Ντελάλικο [ντελάλης Γιώργης Μελίκης]
EXTD=
EXTT0=
EXTT1=
EXTT2=
EXTT3=
EXTT4=
EXTT5=
EXTT6=
EXTT7=
EXTT8=
PLAYORDER=
